<?xml version="1.0" encoding="utf-8"?>
<svg id="master-artboard" viewBox="0 0 317.972900390625 318.37841796875" version="1.1" xmlns="http://www.w3.org/2000/svg" x="0px" y="0px" style="enable-background:new 0 0 1400 980;" width="317.972900390625px" height="318.37841796875px"><rect id="ee-background" x="0" y="0" width="317.972900390625" height="318.37841796875" style="fill: white; fill-opacity: 0; pointer-events: none;"/>

<g id="XMLID_962_" transform="matrix(1, 0, 0, 1, -62.02702331542969, -153.34458923339844)">
	<path d="M 365.600006 316.5 A 147.300003 147.300003 0 0 1 218.300003 463.800003 A 147.300003 147.300003 0 0 1 71 316.5 A 147.300003 147.300003 0 0 1 218.300003 169.199997 A 147.300003 147.300003 0 0 1 365.600006 316.5 Z" id="XMLID_1008_" class="st0" style="fill: rgb(245, 245, 245); fill-opacity: 1;"/>
	<g id="XMLID_1242_">
		<path id="XMLID_1027_" class="st1" d="M266.3,407.5h-96c-6.1,0-11.1-5-11.1-11.1V236.6c0-6.1,5-11.1,11.1-11.1h96&#10;&#9;&#9;&#9;c6.1,0,11.1,5,11.1,11.1v159.7C277.4,402.5,272.4,407.5,266.3,407.5z" style="fill: rgb(85, 88, 87); fill-opacity: 1;"/>
		<path d="M 174.300003 245.699997 H 262.300003 V 379.5 H 174.300003 V 245.699997 Z" id="XMLID_1028_" class="st2" style="fill: rgb(255, 255, 255); fill-opacity: 1;"/>
		<g id="XMLID_1026_">
			<g id="XMLID_921_">
				<path id="XMLID_922_" class="st3" d="M223.7,240.3h-10.9c-1.8,0-3.3-1.5-3.3-3.3l0,0c0-1.8,1.5-3.3,3.3-3.3h10.9&#10;&#9;&#9;&#9;&#9;&#9;c1.8,0,3.3,1.5,3.3,3.3l0,0C227,238.8,225.6,240.3,223.7,240.3z" style="fill: rgb(254, 197, 86); fill-opacity: 1;"/>
			</g>
		</g>
		<path d="M 223.400003 393.700012 A 5.1 5.1 0 0 1 218.300003 398.800012 A 5.1 5.1 0 0 1 213.200003 393.700012 A 5.1 5.1 0 0 1 218.300003 388.600012 A 5.1 5.1 0 0 1 223.400003 393.700012 Z" id="XMLID_1025_" class="st3" style="fill: rgb(254, 197, 86); fill-opacity: 1;"/>
		<g id="XMLID_1020_">
			<path d="M 188.5 309.600006 H 204.5 V 361.100006 H 188.5 V 309.600006 Z" id="XMLID_1023_" class="st0" style="fill: rgb(169, 190, 61); fill-opacity: 1;"/>
			<path d="M 210.300003 293.399994 H 226.300003 V 361.199997 H 210.300003 V 293.399994 Z" id="XMLID_1022_" class="st3" style="fill: rgb(254, 197, 86); fill-opacity: 1;"/>
			<path d="M 232 271.799988 H 248 V 361.199989 H 232 V 271.799988 Z" id="XMLID_1021_" class="st4" style="fill: rgb(241, 99, 95); fill-opacity: 1;"/>
		</g>
	</g>
<path d="M 109.22296905517578 321.14862060546875 L 271.18243408203125 651.9594116210938" style="fill: rgb(182, 63, 251); fill-opacity: 1; stroke: rgb(0, 0, 0); stroke-opacity: 1; stroke-width: 0; paint-order: fill;"/><path d="M 531.351318359375 655.4053955078125" style="fill: rgb(245, 245, 245); fill-opacity: 1; stroke: rgb(0, 0, 0); stroke-opacity: 1; stroke-width: 0; paint-order: fill;"/></g>











</svg>